<svg width="24" height="24" viewBox="0 0 24 24" fill="none" xmlns="http://www.w3.org/2000/svg">
  <path d="M12 2C7.58 2 4 3.79 4 6V18C4 20.21 7.58 22 12 22C16.42 22 20 20.21 20 18V6C20 3.79 16.42 2 12 2ZM12 4C16.42 4 18 5.79 18 6C18 6.21 16.42 8 12 8C7.58 8 6 6.21 6 6C6 5.79 7.58 4 12 4ZM6 8.42C7.5 9.38 9.64 10 12 10C14.36 10 16.5 9.38 18 8.42V12C18 12.21 16.42 14 12 14C7.58 14 6 12.21 6 12V8.42ZM6 14.42C7.5 15.38 9.64 16 12 16C14.36 16 16.5 15.38 18 14.42V18C18 18.21 16.42 20 12 20C7.58 20 6 18.21 6 18V14.42Z" fill="#424242"/>
</svg>
